<svg width="379" height="379" fill="none" xmlns="http://www.w3.org/2000/svg"><g filter="url(#a)"><path fill-rule="evenodd" clip-rule="evenodd" d="M291.612 129.498c-12.479-3.975-25.489-4.908-38.421-6.304 4.121-.908 8.582-2.124 12.779-2.59 3.862-.423 6.16 1.168 9.795 2.434 6.487 2.265 13.735 5.017 19.375 7.647-1.169-.414-2.346-.81-3.528-1.187Zm-17.773 4.965c-13.691-2.558-27.707-3.114-41.379-5.788 3.39-1.038 5.311-1.942 8.913-1.599 5.355.508 10.774 1.606 16.006 2.771 7.594 1.691 15.256 3.515 22.654 5.914-2.055-.477-4.12-.91-6.194-1.298Zm.659 2.672c-.937.378-4.221-.905-5.282-1.135 1.022.195 4.683 1.377 5.282 1.135Zm-27.259-.281a477.752 477.752 0 0 0-32.288-.951c1.927-.72 3.767-1.623 5.644-2.465 5.133-2.3 6.025-1.935 11.149-.422 6.609 1.952 13.38 3.063 20.156 4.193a137.106 137.106 0 0 0-4.662-.355h.001Zm-12.503 6.177c-14.79 1.122-29.379 2.914-44.143 4.568 3.152-1.273 6.182-2.894 9.194-4.458 4.648-2.412 8.216-2.072 13.398-2.074 5.503-.004 10.908.643 16.379 1.265 1.35.155 6.636.588 5.172.699Zm-22.788-11.238c7.896-7.668 16.955-14.813 26.236-20.785 5.89-3.792 12.296-8.072 19.218-4.786-11.448.477-26.404 10.86-33.18 19.758-.325.422-.822.713-1.161 1.128-1.272 1.543.113 1.712-.752 2.662-.101.111-4.726 2-4.112 1.747-3.138 1.295-6.349 2.381-9.491 3.658a137.997 137.997 0 0 1 3.243-3.382h-.001Zm44.048-18.371c-7.772 6.5-16.204 9.96-25.566 13.221 8.55-5.498 17.122-9.995 26.519-13.933-.318.237-.636.473-.952.713l-.001-.001Zm9.672 2.229c1.62-.519 2.343-.384 2.703 1.539-4.186-.158-6.174.415-10.13 1.376a57.634 57.634 0 0 1 7.427-2.915Zm5.137 1.05c-.291-.528-.416-1.536-.619-2.052 3.108-.05 5.747.607 8.388 2.237-.874.007-7.553.779-7.769-.186v.001Zm-126.031 72.151c22.721-2.807 44.512-3.54 67.331-1.316-17.191 1.508-34.455 4.963-51.372 8.317-13.582 2.693-27.355 4.147-40.976 6.581 2.524-2.627 4.884-5.41 7.455-7.999 4.466-4.496 11.157-4.782 17.562-5.583Zm78.115 6.691c4.102-.42 8.194-.93 12.274-1.527 4.435-.655 11.509-3.579 15.972-2.699-24.365 7.234-50.693 10.568-75.74 14.644-10.411 1.695-21.01 4.172-31.095 7.314-14.561 4.536-30.985 4.514-44.882 10.884 4.25-4.454 8.905-10.825 13.747-14.447 3.519-2.634 9.356-2.853 13.543-3.406 6.894-.909 13.821-1.617 20.732-2.36 25.16-2.711 50.279-5.771 75.449-8.403Zm-127.41 24.125a188.948 188.948 0 0 0-5.968 6.894c3.51-16.46 3.352-33.818 5.329-50.528 1.118-9.448 2.167-19.002 3.67-28.387 1.33-8.288 1.683-19.58 6.127-26.74 3.316 3.08 5.767 6.349 5.108 10.826-.847 5.757-3.327 11.291-4.481 17.003-1.296 6.418-2.173 12.952-2.974 19.45-1.233 9.993-1.52 20.159-.992 30.208.143 2.824.324 5.647.544 8.466.097 1.231.734 3.327.462 4.478-.663 2.828-4.687 5.962-6.826 8.33Zm24.502-68.532c1.948-9.249 3.135-19.995 7.186-28.665 2.249-4.817 4.412-6.532 7.771-1.328 2.398 3.714-1.369 11.866-2.556 16.534-3.367 13.244-5.145 26.835-7.373 40.303-.582 3.529-.754 7.018-1.13 10.552-.313 2.928-.232 2.755-1.919 4.96-1.085 1.424-2.796 2.635-4.104 3.885-3.429 3.277-6.906 6.511-10.299 9.825 5.163-18.471 8.484-37.319 12.424-56.066Zm254.021 42.009c-3.129-4.162-7.097-7.913-11.157-11.129-5.623-4.459-12.509-7.067-18.125-11.356-4.723-3.61-8.624-8.414-13.451-12.069-7.668-5.803-15.559-10.628-24.538-14.115 11.435 3.902 22.402 8.6 31.563 16.697.774.686 7.484 9.277 8.872 8.456.95-.554-3.076-6.773-3.915-8.221-6.19-10.648-18.893-17.461-28.931-24.299-11.337-7.723-23.717-12.055-36.633-16.327 11.735.649 21.621 3.663 31.452 10.265 4.835 3.246 9.309 7.038 14.293 10.051 4.418 2.673 8.662 5.137 12.475 8.722 4.271 4.02 7.702 8.399 10.536 13.534 1.065 1.931 6.267 13.624 6.407 6.197.069-3.66-4.553-8.876-6.424-11.52-3.155-4.456-6.814-8.468-10.644-12.349-6.515-6.594-12.733-13.438-20.466-18.64-4.398-2.961-9.004-5.306-14.036-6.998-3.886-1.307-7.875-2.245-11.953-2.707-3.872-.438-4.245-.392-7.326-2.392-2.648-1.721-4.908-3.562-7.871-4.79-3.019-1.251-5.589-1.431-7.835-3.138-2.65-2.02-3.678-4.387-7.097-5.651-3.144-1.164-6.361-.908-9.641-.646-10.847.864-21.86 3.615-30.835 10.031-7.931 5.671-13.323 14.722-17.157 23.547-2.117 4.87-.68 4.687-6.365 7.486-5.977 2.944-11.919 5.836-17.734 9.12 9.587-11.917 17.922-25.111 28.433-36.28 5.621-5.965 11.133-12.027 16.752-17.99 1.659-1.756 14.761-14.41 7.402-13.962-1.702.103-4.261 2.377-5.825 3.124-3.121 1.498-6.22 2.825-9.105 4.783-5.001 3.394-9.083 7.616-13.172 12.007-10.593 11.374-20.141 23.54-25.029 38.475-1.158 3.535-1.581 7.519-3.395 10.762-1.277 2.288-2.777 3.078-5.371 4.768-4.449 2.893-8.773 5.867-12.986 9.103 10.773-15.955 17.722-33.81 26.21-50.989 10.917-22.089 15.913-46.878 25.096-69.7 1.781-4.427 3.951-9.298 6.94-13.066.909-1.145 3.782-2.863 4.033-4.308.663-3.811-1.919-2.788-3.814-1.692-4.645 2.685-9.155 8.742-12.329 12.824-4.62 5.938-9.298 12.38-13.3 18.777-13.785 22.035-22.925 47.04-30.516 71.789-3.572 11.634-7.256 23.461-9.014 35.525-.847 5.826.116 5.982-4.751 9.969-5.083 4.166-9.941 8.585-14.984 12.793 4.596-9.437 7.335-21.141 10.651-31.152 3.473-10.488 7.422-20.818 10.951-31.29 5.74-17.041 10.035-34.489 14.168-51.973a851.67 851.67 0 0 0 6.133-27.96c2.418-12.03 4.877-25.92 10.269-37.017.804-1.65 4.072-9.319-.656-6.678-2.166 1.208-4.733 9.11-5.839 11.24-6.264 12.099-11.541 24.384-16.255 37.16-8.357 22.655-14.222 45.87-20.843 69.036-3.31-4.52-10.183-9.494-16.122-7.571-5.334 1.729-7.958 9.322-9.636 14.079-.187-3.292-4.224-9.429-7.371-9.639-1.789-.12-4.871 1.574-6.367 2.282-3.698 1.748-7.898 3.959-10.204 7.4-4.726 7.059-3.83 18.138-4.67 26.307-2.5 24.363-2.052 47.888.702 72.152.63 5.552 1.39 8.127-1.77 12.504-3.607 5-7.086 9.916-10.638 14.61 1.141-2.175.11-8.819.096-11.138-.036-6.209.027-12.366.35-18.572.661-12.779-.025-25.988-.669-38.776-1.325-26.347-1.205-52.359-.316-78.7.186-5.551.06-11.067.027-16.615-.015-2.29.743-7.902-2.895-6.56-1.056.389-1.833 4.486-2.14 5.524-2.834 9.578-3.724 19.939-5.021 29.775-1.18 8.946-2.257 17.906-3.004 26.897-1.436 17.27-.962 34.041-.875 51.342.074 14.25 1.619 29.744 4.253 42.89 1.236 6.166 3.383 12.829 4.008 19.043.38 3.742-1.81 5.129-4.325 8.526-2.545 3.437-5.058 6.9-7.487 10.419.234-5.392-1.303-10.968-1.663-16.364-.303-4.507-.59-8.993-.995-13.496-.323-3.546-.627-7.095-.941-10.644-1.62-18.269-3.201-36.498-6.19-54.598-4.596-27.796-9.608-56.362-9.422-84.64.036-5.396.21-10.79.273-16.187.046-4.069-.328-8.105-.352-12.168-.012-2.072.932-6.079.24-8.144-1.999-5.974-3.73.702-3.786 3.445-.029 1.446-.115 2.887-.137 4.332-.134 9.079-.915 18.034-1.364 27.102-.643 13.077-.068 26.088.366 39.157.474 14.238.118 28.573 1.648 42.757 1.974 18.284 5.927 36.461 8.408 54.696 1.08 7.942 2.585 15.795 3.402 23.774.762 7.456 3.409 14.786 5.02 21.675l-.008-.528c.624 2.927 1.604 4.391.715 7.077-.628 1.888-2.349 3.872-3.38 5.606-2.197 3.688-4.307 7.419-6.418 11.157 1.87-9.488-.665-21.459-2.672-30.779-2.219-10.313-4.922-20.875-8.087-30.932-2.461-7.82-4.498-15.508-5.241-23.649-.99-10.842-3.939-21.269-5.524-32.011-1.496-10.141-4.015-20.184-6.161-30.223-.484-2.26-2.642-13.07-6.154-8.194-.866 1.204.196 4.399.332 5.642.334 3.08.542 6.111.68 9.203.896 19.632 5.008 39.56 8.23 58.902 2.06 12.358 4.24 24.76 7.249 36.923 2.343 9.471 3.609 19.31 6.208 28.647 1.247 4.478 2.513 9.057 4.506 13.262 1.733 3.659 3.48 4.682 2.87 8.625-.876 5.639-5.677 11.492-7.843 16.951-1.772 4.463-3.578 8.933-5.266 13.427a445.83 445.83 0 0 0-6.637 19.098c-1.201 3.703-3.53 8.484-3.748 12.252-.333 5.721 2.906 4.085 4.607.257 1.144-2.576 2.057-5.346 3.134-7.966 7.895-19.19 15.125-39.766 26.915-56.986 4.917-7.191 18.512-8.923 26.488-11.43 19.188-6.039 39.945-6.835 59.854-9.042 16.053-1.777 31.847-3.41 47.563-7.358 2.296-.575 44.189-12.909 43.138-15.06.587 1.207-45.832 11.537-49.549 11.842-11.658.949-23.278 1.205-34.961 1.699-29.222 1.236-57.965 1.939-84.518 15.746 3.351-5.27 7.36-15.219 13.24-17.259 11.337-3.938 23.284-6.481 34.704-10.321 11.872-3.986 24.063-6.657 36.005-10.35 11.928-3.69 23.83-7.513 35.939-10.617 12.172-3.118 24.746-6.369 37.394-5.968 4.868.155 9.75.587 14.597 1.045 1.831.173 16.402 2.867 8.523-.48-5.102-2.169-11.782-2.336-17.248-3.131-6.268-.91-12.276-1.718-18.611-1.669-13.793.107-27.65 3.341-40.983 6.541-15.958 3.827-32.569 7.626-47.802 13.784-13.96 5.646-27.992 11.066-41.953 16.641 2.538-3.886 5.238-7.656 7.88-11.473 1.282-1.856 2.636-4.87 4.457-6.137 2.78-1.937 8.63-2.44 11.858-3.516 12.99-4.319 26.04-9.392 39.351-12.605 21.403-5.167 43.314-8.372 64.85-12.971 12.569-2.681 25.878-5.048 38.729-4.819 4.834.088 9.674-.088 14.421.933 1.679.359 3.793 1.29 5.522 1.485 5.175.581 1.336-1.908-1.803-2.996-24.879-8.614-52.302-1.728-77.38 1.777-16.586 2.316-32.959 4.677-48.795 10.383-14.591 5.255-28.54 12.264-43.374 16.879 3.888-5.525 7.354-11.247 13.566-14.286 6.874-3.361 14.119-4.823 21.621-6.097 15.597-2.658 31.09-6.06 46.737-8.375 14.375-2.123 28.723-4.007 42.972-6.906 13.873-2.826 27.665-4.476 40.907-9.816 4.192-1.692 9.275-4.622 13.751-4.878 5.802-.331 12.827 1.407 18.516 2.269 13.856 2.095 28.239 4.255 41.048 10.12 12.568 5.756 21.102 14.802 30.723 24.258 3.031 2.985 6.013 6.018 9.036 9.01.673.668 4.69 5.676 5.518 5.739 5.124.384-4.542-9.772-6.21-11.853-11.527-14.381-24.001-26.374-40.959-34.209-14.452-6.679-29.561-11.022-45.321-13.246.04-2.848 11.651-2.99 11.969-5.941.422-3.936-7.703.002-9.313.487-3.058.918-6.032 2.066-9.105 2.935-7.056 1.994-14.862-.462-22.029-1.382-8.642-1.105-17.398-1.828-26.089-2.352-28.77-1.735-56.374-.78-84.318 6.929 5.014-4.392 10.245-8.567 15.545-12.608 2.064-1.573 3.637-3.014 5.975-3.752 3.948-1.248 8.636-.69 12.752-1.093 16.272-1.587 32.47-3.371 48.832-3.873 26.926-.827 55.001 4.006 80.536 12.567 12.458 4.177 24.68 8.24 35.497 15.931 2.505 1.778 4.732 3.819 7.008 5.873.941.85 6.685 7.027 6.977 6.994 2.492-.266-9.062-13.051-10.741-14.684-22.561-21.929-51.836-26.915-81.729-31.318-31.26-4.605-62.637-2.159-93.433 4.789 6.15-3.837 12.194-10.412 19.097-12.644 5.244-1.695 11.9-1.374 17.207-1.917 15.387-1.583 31.516 1.105 46.938 2.196 17.421 1.233 34.344 3.467 51.187 8.108 8.618 2.375 17.01 4.889 25.419 7.973 6.664 2.444 12.101 3.949 17.492 8.415 2.175 1.818 8.646 6.646 12.147 9.928 1.428 1.341 2.907 4.173 4.521 4.846 6.012 2.509-1.967-7.287-3.277-8.987 4.779 2.855 9.24 6.161 13.483 9.68.839.699 1.642 1.231 2.492 1.869.997.751 1.52 2.942 3.228 2.211 1.391-.598.897-2.031.233-2.937Z" fill="#012A32"/></g><defs><filter id="a" x=".486" y=".998" width="378.172" height="377.044" filterUnits="userSpaceOnUse" color-interpolation-filters="sRGB"><feFlood flood-opacity="0" result="BackgroundImageFix"/><feColorMatrix in="SourceAlpha" values="0 0 0 0 0 0 0 0 0 0 0 0 0 0 0 0 0 0 127 0" result="hardAlpha"/><feOffset dy="4"/><feGaussianBlur stdDeviation="2"/><feComposite in2="hardAlpha" operator="out"/><feColorMatrix values="0 0 0 0 0 0 0 0 0 0 0 0 0 0 0 0 0 0 0.25 0"/><feBlend in2="BackgroundImageFix" result="effect1_dropShadow_1_4684"/><feBlend in="SourceGraphic" in2="effect1_dropShadow_1_4684" result="shape"/></filter></defs></svg>