<svg width="301" height="221" fill="none" xmlns="http://www.w3.org/2000/svg"><g filter="url(#a)"><path fill-rule="evenodd" clip-rule="evenodd" d="M107.589 161.187c-1.121 1.859-.396 4.87-.1 6.861-.269-4.885 3.092-10.383 4.902-14.733 1.761-4.233 3.23-8.601 4.275-13.074.024-.097 2.231-10.08-1.014-8.173-9.022 5.247-3.201 21.774-8.063 29.119Zm-3.885-75.648c2.738 3.602 16.551 20.551 21.557 14.956 3.984-4.453-4.21-15.126-7.643-17.518C111.901 79 105.771 75.75 100.29 71.39c.614 5.1.117 9.844 3.414 14.15Zm145.655 2.873c4.413-.658 8.839-1.343 13.193-2.323-5.054.746-10.05 1.353-15.007 2.62l1.815-.297h-.001ZM15.548 169.667c-.925-2.335 4.225-6.286 5.437-7.573 3.322-3.529 6.74-7.454 7.33-12.124 1.084-3.665-7.496-1.76-10.088-2.2-1.818-.307-6.275-1.343-7.206-3.218-1.993-4.018 4.407-6.188 7.2-7.502 4.092-1.923 6.296-2.416 1.946-4.234-4.677-1.952-14.64-1.712-15.758-8.564-.952-5.835 8.832-8.258 12.716-9.152 7.317-1.69 13.839-.63 20.709 2.142 1.602.646 11.307 4.074 10.659 1.672-2.069-5.249-9.093-6.206-11.83-11.002-1.556-2.726-1.63-5.26-3.605-7.945-1.95-2.652-5.96-6.536-4.117-10.303 1.17-2.39 3.95-2.786 6.055-2.052 5.121 1.407 8.563 4.653 13.078 7.214 3.305 1.872 7.035 1.17 9.927 3.957 4.367 4.317 8.752 9.175 13.579 13.198 1.513 1.261 8.588 6.685 9.037 2.522.253-2.344-6.992-6.362-8.17-7.227-2.817-2.069-5.832-3.789-7.36-7.125-.876-1.912-.434-3.966-1.13-5.454-2.058-4.397-8.003-7.69-10.643-11.877-2.369-3.757-7.879-13.256-6.283-17.8 2.185-6.221 8.518.342 11.623 2.664 3.438 2.573 6.425 5.17 10.204 6.96 3.335 1.583 5.767 3.324 8.124 6.355 4.356 5.599 7.258 11.874 10.759 17.768a.543.543 0 0 1-.046-.055c2.098 3.387 5.082 6.937 8.684 8.863 6.037 3.227 4.244-.585 1.294-4.743-4.446-6.271-9.867-11.848-14.331-18.086-1.59-2.222-3.1-4.653-3.332-7.466-.154-1.887 1.047-3.4 1.088-4.77.146-4.763-14.444-31.233-4.478-32.85 5.38-.873 8.688 11.132 10.458 14.297 2.827 5.053 4.227 9.471 9.493 12.236-.492-2.259 1.4-3.85 1.112-5.818-.343-2.34-2.794-4.387-4.13-6.177-3.673-4.92-7.057-10.159-9.38-15.836-7.086-17.326 11.361-4.228 17.203.521 1.12.912 2.564 2.055 3.851 3.074 3.378 2.666 4.48 2.162 8.038 3.552 6.052 2.367 9.488 13.19 11.454 18.895.609 1.76 10.972 29.491 14.956 22.367 2.01-3.592-4.52-15.501-6.631-18.977-3.246-5.344-11.702-12.69-11.046-19.422.206-2.115 1.828-3.004 2.126-4.901.699-4.429-3.474-10.176-4.566-14.322-2.223-8.439 2.355-14.493 8.414-4.955 2.397 3.775 4.174 5.995 7.273 9.273 3.535 3.741 3.454 8.888 6.139 12.864 2.219 3.285 1.916.031 5.508 2.33 2.983 1.91 3.521 8.612 3.9 11.841.527 4.485.178 23.094 6.556 23.17 5.813.068 4.073-11.927 3.367-15.277-1.765-8.379-7.206-14.516-11.847-21.382-2.262-3.347-5.07-7.305-6.172-11.248-.965-3.456.168-6.072.583-9.404.483-3.88 1.373-21.71 9.643-15.983 5.557 3.848 3.583 13.607 8.527 17.89.531-4.6-2.333-16.575 4.105-18.63 6.216-1.983 9.378 11.098 10.933 15.432.953 2.659 3.089 18.272 6.351 19.956 3.406 1.757 4.482-2.76 5.348-5.224 1.483-4.214 13.14-42.913 19.929-38.703 5.266 3.262-4.216 15.192-2.183 18.656.746 1.274 2.082.25 3.409.712 4.861 1.696 5.746 4.164 3.522 9.018 12.956 1.79-1.049 12.912-5.562 16.766-3.074 2.626-16.463 13.614-10.018 18.725 2.167 1.72 8.221-.043 10.927.645 5.221 1.329 6.019 6.217 1.971 9.63-2.783 2.349-6.989 3.493-10.535 3.96-2.036.272-7.755-.502-9.148 1.13 7.645 4.268 1.147 6.371-4.465 8.476-4.197 1.574-15.204 5.17-15.222 11.18 6.91-.636 13.59-3.136 20.421-4.255 7.48-1.221 14.729-2.809 22.313-4.834 14.381-3.842 29.583-7.228 44.261-9.413 7.179-1.07 14.322-2.6 21.424-4.096 2.561-.542 15.666-5.697 16.718-.56 1.421 6.95-18.722 5.668-22.426 7.843-26.542 5.068-52.798 11.667-79.397 16.066 2.37.571 7.634 4.584 5.742 7.567 2.073.257 5.857-.407 7.451 1.206 3.525 3.574-1.24 3.045-1.923 4.76-1.165 2.93 4.966 3.578 7.228 4.243 10.541 3.097 20.821 8.578 30.61 13.55 5.37 2.729 17.127 15.546 6.644 19.286-5.232 1.869-13.12-2.274-17.549-4.572-2.795-1.449-9.578-7.122-13.031-6.624-.196 4.084 4.99 12.182 6.456 15.744 3.104 7.53 4.479 13.328.621 20.953-9.167 18.114-16.471-14.685-19.04-13.362-1.807.931.763 16.222.993 18.179.508 4.338.676 16.737-5.962 17.335-5.568.501-7.868-10.544-9.128-14.162-1.055-3.034-3.157-6.074-3.962-9.567-.662-2.873-.201-5.927-.79-8.733-.612-2.918-3.04-4.5-3.772-7.783-.826-3.685-.781-8.007-1.265-11.814-.809-6.362-1.564-15.133-7.408-19.272-4.653 10.697 2.162 23.899 4.439 34.421 1.138 5.262 2.811 11.654-1.173 15.95-1.601 1.726-.734-.621-2.483 1.922-.392.57-.52 1.581-.726 2.236-1.469 4.706-2.303 9.552-3.647 14.284-.833 2.936-2.679 12.844-6.467 13.681-6.869 1.517-7.458-22.886-8.063-27.495-.455-3.486-.355-7.297-.961-10.692-.556-3.115-2.516-5.208-2.182-8.759.432-4.599 2.322-9.125 3.266-13.627 1.27-6.056 1.242-11.737.499-17.84-.308-2.528-.688-8.447-3.644-8.961-4.751-.822-3.702 8.729-3.747 11.233-.133 7.415 1.815 15.578-.173 23.671-2.054 8.373 2.764 16.14 2.02 24.527-.269 3.03-.948 4.424-2.88 6.645-2.145 2.475-3.244 3.599-4.341 7.346-.994 3.396-4.789 20.373-10.785 15.372-1.946-1.622-.988-5.272-.932-7.375.121-4.636-.017-9.288.218-13.92.148-2.941 1.022-6.274.281-9.191-.703-2.767-2.236-4.197-1.882-7.371.474-4.275 3.719-9.207 3.411-13.378-.292-3.977-1.789-7.869-1.69-12.166.081-3.419 3.301-21.162.662-22.182-5.364-2.077-5.715 19.838-5.776 21.506-.387 10.629.775 21.963.007 32.656-.259 3.593-2.047 5.445-3.183 8.226-1.51 3.693-1.276 8.621-2.508 12.549-.982 3.131-3.552 11.319-7.506 7.091-2.859-3.053-1.95-11.395-2.417-15.382-.525-4.508-1.372-8.916-1.381-13.467-.003-.979.397-2.898.117-3.781-.783-2.442-3.871-2.953-4.684-5.815.685 2.905.528 5.28-.934 7.812-.38.662-1.831 1.512-2.421 2.277-1.782 2.306-2.68 5.729-3.871 8.388-1.676 3.733-12.601 21.082-13.41 8.348-.344-5.443.235-10.994 1.02-16.366.616-4.22 2.225-9.275 1.58-13.519-.669-4.399-1.598-5.682.311-10.376 1.962-4.823 5.79-11.004 4.654-16.376-2.315-10.946-11.919 15.289-12.77 18.179-1.721 5.839-3.962 11.926-8.178 16.444-4.7 5.04-10.277 8.219-14.154 14.148-1.727 2.644-6.707 11.71-10.974 8.982-4.202-2.686 1.394-12.81 2.425-15.764 1.067-3.051 2.713-6.263 3.465-9.357.68-2.809.22-5.531.696-8.378 1.347-8.074 7.885-11.751 11.455-18.487 1.884-3.557 1.499-6.009-3.107-3.848-2.488 1.164-4.465 4.227-6.47 6.146-3.017 2.889-6.268 5.567-9.408 8.323-4.24 3.717-27.646 24.827-32.09 13.495Z" fill="#89B99A"/></g><defs><filter id="a" x=".344" y=".779" width="299.675" height="219.731" filterUnits="userSpaceOnUse" color-interpolation-filters="sRGB"><feFlood flood-opacity="0" result="BackgroundImageFix"/><feColorMatrix in="SourceAlpha" values="0 0 0 0 0 0 0 0 0 0 0 0 0 0 0 0 0 0 127 0" result="hardAlpha"/><feOffset dy="4"/><feGaussianBlur stdDeviation="2"/><feComposite in2="hardAlpha" operator="out"/><feColorMatrix values="0 0 0 0 0 0 0 0 0 0 0 0 0 0 0 0 0 0 0.25 0"/><feBlend in2="BackgroundImageFix" result="effect1_dropShadow_1_4687"/><feBlend in="SourceGraphic" in2="effect1_dropShadow_1_4687" result="shape"/></filter></defs></svg>